<svg width="20" height="20" viewBox="0 0 20 20" fill="none" xmlns="http://www.w3.org/2000/svg">
<path fill-rule="evenodd" clip-rule="evenodd" d="M11.9887 10.2779C11.8738 9.95289 11.6609 9.67149 11.3795 9.47247C11.098 9.27345 10.7617 9.16661 10.417 9.16667V8.75H9.58366V9.16667C9.14163 9.16667 8.71771 9.34226 8.40515 9.65482C8.09259 9.96738 7.91699 10.3913 7.91699 10.8333C7.91699 11.2754 8.09259 11.6993 8.40515 12.0118C8.71771 12.3244 9.14163 12.5 9.58366 12.5V14.1667C9.22116 14.1667 8.91241 13.9354 8.79741 13.6112C8.78035 13.5582 8.75282 13.5091 8.71646 13.4669C8.6801 13.4247 8.63565 13.3902 8.58573 13.3655C8.5358 13.3408 8.48143 13.3263 8.42582 13.3229C8.37021 13.3196 8.31449 13.3274 8.26196 13.346C8.20943 13.3645 8.16115 13.3935 8.11999 13.431C8.07883 13.4685 8.04561 13.514 8.0223 13.5646C7.999 13.6152 7.98608 13.6699 7.98431 13.7256C7.98254 13.7813 7.99195 13.8368 8.01199 13.8888C8.12687 14.2138 8.33971 14.4952 8.62119 14.6942C8.90267 14.8932 9.23893 15.0001 9.58366 15V15.4167H10.417V15C10.859 15 11.2829 14.8244 11.5955 14.5118C11.9081 14.1993 12.0837 13.7754 12.0837 13.3333C12.0837 12.8913 11.9081 12.4674 11.5955 12.1548C11.2829 11.8423 10.859 11.6667 10.417 11.6667V10C10.5893 9.99996 10.7574 10.0533 10.8982 10.1528C11.0389 10.2523 11.1454 10.3929 11.2028 10.5554C11.2396 10.6596 11.3163 10.7449 11.416 10.7926C11.4654 10.8162 11.5189 10.8299 11.5736 10.8328C11.6282 10.8357 11.6829 10.8278 11.7345 10.8096C11.7861 10.7914 11.8336 10.7632 11.8743 10.7266C11.915 10.69 11.9481 10.6458 11.9717 10.5964C11.9953 10.547 12.0089 10.4935 12.0118 10.4388C12.0148 10.3842 12.0069 10.3295 11.9887 10.2779ZM9.58366 10C9.36265 10 9.15068 10.0878 8.9944 10.2441C8.83812 10.4004 8.75033 10.6123 8.75033 10.8333C8.75033 11.0543 8.83812 11.2663 8.9944 11.4226C9.15068 11.5789 9.36265 11.6667 9.58366 11.6667V10ZM10.417 14.1667C10.638 14.1667 10.85 14.0789 11.0062 13.9226C11.1625 13.7663 11.2503 13.5543 11.2503 13.3333C11.2503 13.1123 11.1625 12.9004 11.0062 12.7441C10.85 12.5878 10.638 12.5 10.417 12.5V14.1667Z" fill="#94A3B8"/>
<path fill-rule="evenodd" clip-rule="evenodd" d="M5.48073 3.59208C6.50323 3.09167 8.18073 2.5 10.0166 2.5C11.8141 2.5 13.4474 3.06708 14.4645 3.56083L14.522 3.58875C14.8287 3.74042 15.0762 3.88375 15.2503 4L13.7112 6.25C17.2595 9.8775 20.0003 17.4988 10.0166 17.4988C0.0328171 17.4988 2.6999 10.0158 6.27907 6.25L4.7499 4C4.86782 3.92292 5.0174 3.83333 5.19573 3.73833C5.28407 3.69083 5.37907 3.64181 5.48073 3.59208ZM12.722 6.22042L13.9541 4.41917C12.8082 4.50167 11.4449 4.77083 10.1324 5.15083C9.1949 5.42167 8.15323 5.38042 7.18865 5.2025C6.94557 5.15749 6.70417 5.10385 6.4649 5.04167L7.2649 6.21958C8.97948 6.83 11.007 6.83 12.722 6.22042ZM6.78365 6.92917C8.7899 7.70417 11.2012 7.70417 13.2074 6.92833C14.0446 7.8113 14.7451 8.81447 15.2857 9.90458C15.8491 11.0538 16.1557 12.2025 16.1057 13.1925C16.0574 14.1479 15.6816 14.9642 14.8232 15.5708C13.9287 16.2029 12.4241 16.6654 10.0162 16.6654C7.60573 16.6654 6.09407 16.2108 5.19115 15.5858C4.32657 14.9871 3.94698 14.1817 3.89323 13.2392C3.83698 12.26 4.13698 11.1171 4.69823 9.96C5.23365 8.85667 5.98073 7.79458 6.78365 6.92917ZM6.30448 4.13167C6.63782 4.23083 6.98615 4.31708 7.33948 4.3825C8.23532 4.5475 9.13365 4.57167 9.90032 4.34958C10.7937 4.08921 11.7024 3.88451 12.6212 3.73667C11.8545 3.50583 10.9578 3.33333 10.0162 3.33333C8.58073 3.33333 7.24198 3.73375 6.30448 4.13167Z" fill="#94A3B8"/>
</svg>
