<svg width="20" height="20" viewBox="0 0 20 20" fill="none" xmlns="http://www.w3.org/2000/svg">
<path fill-rule="evenodd" clip-rule="evenodd" d="M10.2055 17.474C11.1639 16.6043 12.051 15.6591 12.858 14.6473C14.558 12.5115 15.5922 10.4057 15.6622 8.53317C15.6899 7.77217 15.5639 7.01338 15.2918 6.30215C15.0197 5.59092 14.607 4.94183 14.0784 4.39366C13.5498 3.84549 12.9162 3.40948 12.2153 3.11167C11.5145 2.81387 10.7608 2.66038 9.99926 2.66038C9.23775 2.66038 8.48405 2.81387 7.78319 3.11167C7.08233 3.40948 6.44868 3.84549 5.9201 4.39366C5.39151 4.94183 4.97884 5.59092 4.70672 6.30215C4.43461 7.01338 4.30864 7.77217 4.33634 8.53317C4.40717 10.4057 5.44217 12.5115 7.14134 14.6473C7.94839 15.6591 8.83541 16.6043 9.79384 17.474C9.88606 17.5573 9.95467 17.6179 9.99967 17.6557L10.2055 17.474ZM9.38467 18.4448C9.38467 18.4448 3.33301 13.3482 3.33301 8.33317C3.33301 6.56506 4.03539 4.86937 5.28563 3.61913C6.53587 2.36888 8.23156 1.6665 9.99967 1.6665C11.7678 1.6665 13.4635 2.36888 14.7137 3.61913C15.964 4.86937 16.6663 6.56506 16.6663 8.33317C16.6663 13.3482 10.6147 18.4448 10.6147 18.4448C10.278 18.7548 9.72384 18.7515 9.38467 18.4448ZM9.99967 10.6665C10.6185 10.6665 11.212 10.4207 11.6496 9.98309C12.0872 9.5455 12.333 8.95201 12.333 8.33317C12.333 7.71433 12.0872 7.12084 11.6496 6.68325C11.212 6.24567 10.6185 5.99984 9.99967 5.99984C9.38084 5.99984 8.78734 6.24567 8.34976 6.68325C7.91217 7.12084 7.66634 7.71433 7.66634 8.33317C7.66634 8.95201 7.91217 9.5455 8.34976 9.98309C8.78734 10.4207 9.38084 10.6665 9.99967 10.6665ZM9.99967 11.6665C9.11562 11.6665 8.26777 11.3153 7.64265 10.6902C7.01753 10.0651 6.66634 9.21723 6.66634 8.33317C6.66634 7.44911 7.01753 6.60127 7.64265 5.97615C8.26777 5.35103 9.11562 4.99984 9.99967 4.99984C10.8837 4.99984 11.7316 5.35103 12.3567 5.97615C12.9818 6.60127 13.333 7.44911 13.333 8.33317C13.333 9.21723 12.9818 10.0651 12.3567 10.6902C11.7316 11.3153 10.8837 11.6665 9.99967 11.6665Z" fill="#94A3B8"/>
</svg>
